<?xml version="1.0" ?><svg viewBox="0 0 40 40" xmlns="http://www.w3.org/2000/svg"><g id="Blogger"><path d="M15.52,34A9.42,9.42,0,0,1,6.1,24.58V15.29A9.29,9.29,0,0,1,15.38,6h4.93c4.16,0,8.23,3.61,8.23,7v1.45a2.34,2.34,0,0,0,2.34,2.34h1.46a1.56,1.56,0,0,1,1.56,1.56v6.5A9.11,9.11,0,0,1,24.79,34ZM21.9,15.07h0a1.75,1.75,0,0,0-1.75-1.75H14.88a1.75,1.75,0,0,0-1.76,1.75h0a1.76,1.76,0,0,0,1.76,1.76h5.27A1.75,1.75,0,0,0,21.9,15.07ZM27,25h0a1.75,1.75,0,0,0-1.76-1.75H14.88A1.75,1.75,0,0,0,13.12,25h0a1.76,1.76,0,0,0,1.76,1.76H25.22A1.76,1.76,0,0,0,27,25Z"/></g></svg>