<?xml version="1.0" encoding="UTF-8" standalone="no"?>
<!DOCTYPE svg PUBLIC "-//W3C//DTD SVG 1.1//EN" "http://www.w3.org/Graphics/SVG/1.1/DTD/svg11.dtd">
<svg width="100%" height="100%" viewBox="0 0 5906 5906" version="1.1" xmlns="http://www.w3.org/2000/svg" xmlns:xlink="http://www.w3.org/1999/xlink" xml:space="preserve" xmlns:serif="http://www.serif.com/" style="fill-rule:evenodd;clip-rule:evenodd;stroke-linejoin:round;stroke-miterlimit:2;">
    <g transform="matrix(1,0,0,1,-6643.6875,0)">
        <g id="Página-2" serif:id="Página 2" transform="matrix(4.166667,0,0,4.166667,6643.6875,0)">
            <rect x="0" y="0" width="1417.32" height="1417.32" style="fill:none;"/>
            <clipPath id="_clip1">
                <rect x="0" y="0" width="1417.32" height="1417.32"/>
            </clipPath>
            <g clip-path="url(#_clip1)">
                <g id="Capa-1" serif:id="Capa 1">
                    <g transform="matrix(1,0,0,1,0,-0.003)">
                        <rect x="0" y="0" width="1417.323" height="1417.323" style="fill:rgb(230,58,43);"/>
                    </g>
                    <g transform="matrix(1,0,0,1,1123.2788,445.7736)">
                        <path d="M0,25.453C2.113,26.842 4.927,27.567 8.453,27.624L48.701,28.198C52.095,28.106 55.21,27.683 58.048,26.92C60.883,26.169 63.4,25.214 65.593,24.067C70.064,21.49 72.989,18.306 74.379,14.497C75.76,10.694 74.715,6.711 71.234,2.56C68.998,-0.106 65.765,-1.7 61.54,-2.221C57.314,-2.745 52.988,-2.626 48.559,-1.891L6.077,5.032C3.259,5.442 0.923,6.23 -0.938,7.395C-4.378,9.317 -6.201,11.757 -6.402,14.714C-6.609,17.664 -6.213,19.734 -5.216,20.922C-3.852,22.548 -2.109,24.061 0,25.453" style="fill:white;fill-rule:nonzero;"/>
                    </g>
                    <g transform="matrix(1,0,0,1,240.9164,497.8834)">
                        <path d="M0,192.612C18.699,198.788 38.393,201.791 60.205,201.791C62.84,201.791 65.557,201.745 68.28,201.656C73.477,201.482 77.582,196.839 77.431,191.301C77.278,185.826 73.129,181.537 67.944,181.537L67.688,181.541C44.822,182.304 24.511,179.637 5.609,173.392C-16.476,166.096 -30.444,152.729 -38.271,142.802C-47.703,130.841 -52.263,119.035 -53.303,112.561C-54.266,106.559 -56.383,84.861 -43.199,57.627C-37.569,45.999 -30.567,38.23 -25.685,33.759C-20.665,29.161 -16.78,27.037 -16.743,27.017L-16.176,26.711L-15.358,26.113C-15.151,25.96 5.929,10.978 67.77,13.041L67.985,13.044C73.127,13.044 77.277,8.756 77.431,3.278C77.502,0.641 76.623,-1.878 74.954,-3.815C73.22,-5.832 70.851,-6.989 68.28,-7.076C4.891,-9.179 -19.684,4.855 -25.912,9.407C-29.788,11.611 -47.604,22.796 -59.999,48.398C-66.061,60.921 -70.256,74.281 -72.132,87.034C-73.5,96.341 -73.403,106.224 -71.845,116.405C-68.921,135.519 -50.141,176.046 0,192.612" style="fill:white;fill-rule:nonzero;"/>
                    </g>
                    <g transform="matrix(1,0,0,1,635.9105,500.549)">
                        <path d="M0,192.626C18.693,198.802 38.387,201.806 60.204,201.806C62.81,201.806 65.526,201.76 68.275,201.67C70.845,201.586 73.216,200.429 74.953,198.412C76.623,196.471 77.501,193.952 77.428,191.319C77.278,185.844 73.087,181.555 67.89,181.555L67.688,181.556C44.797,182.313 24.501,179.649 5.608,173.407C-16.593,166.074 -44.849,149.491 -53.388,112.14C-55.784,101.658 -54.553,81.097 -43.199,57.641C-37.573,46.021 -30.57,38.248 -25.685,33.774C-20.888,29.382 -17.23,27.3 -16.805,27.063L-14.808,25.957L-14.851,25.793C-11.325,23.582 11.118,11.169 67.768,13.055L67.984,13.058C73.127,13.058 77.275,8.77 77.428,3.298C77.504,0.662 76.624,-1.859 74.953,-3.803C73.216,-5.82 70.845,-6.977 68.278,-7.061C4.901,-9.18 -19.686,4.869 -25.913,9.424C-29.79,11.629 -47.614,22.83 -59.999,48.415C-66.061,60.936 -70.256,74.297 -72.132,87.049C-73.759,98.118 -73.625,108.72 -71.753,116.905C-65.886,142.574 -48.674,176.546 0,192.626" style="fill:white;fill-rule:nonzero;"/>
                    </g>
                    <g transform="matrix(1,0,0,1,1249.4243,805.0777)">
                        <path d="M0,70.868C-4.439,56.803 -13.135,46.62 -26.585,39.746C-37.542,34.142 -50.262,31.313 -65.991,28.786C-73.59,27.566 -118.108,19.624 -123.383,18.547C-166.196,9.812 -168.104,2.09 -170.126,-6.085C-171.955,-13.495 -172.457,-24.133 -164.459,-32.733C-157.663,-40.041 -138.235,-46.02 -123.404,-47.934C-105.405,-50.252 -77.368,-49.921 -46.043,-35.149C-41.427,-32.97 -35.779,-34.797 -33.455,-39.225C-32.324,-41.383 -32.128,-43.842 -32.901,-46.146C-33.699,-48.522 -35.416,-50.434 -37.739,-51.528C-72.709,-68.018 -104.46,-68.558 -124.94,-66.111C-148.089,-63.346 -169.124,-55.023 -178.533,-44.91C-191.995,-30.432 -191.389,-13.506 -188.511,-1.857C-185.77,9.237 -180.234,16.763 -170.564,22.547C-161.644,27.877 -148.705,32.017 -127.295,36.386C-121.696,37.527 -77.097,45.486 -69.098,46.77C-39.94,51.455 -24.043,57.29 -18.083,76.181C-16.68,80.625 -16.505,99.397 -26.322,108.524C-41.698,122.816 -104.367,124.416 -142.98,115.66C-160.928,111.59 -168.314,106.447 -168.929,104.726C-170.608,100.022 -175.963,97.475 -180.848,99.042C-183.239,99.808 -185.179,101.426 -186.309,103.597C-187.463,105.81 -187.639,108.319 -186.802,110.662C-183.199,120.758 -170.281,128.198 -147.308,133.408C-130.197,137.289 -109.396,139.426 -88.737,139.426C-83.663,139.426 -78.665,139.295 -73.886,139.036C-57.24,138.138 -27.223,134.685 -13.205,121.653C2.574,106.985 3.175,80.925 0,70.868" style="fill:white;fill-rule:nonzero;"/>
                    </g>
                    <g transform="matrix(1,0,0,1,772.0984,886.3913)">
                        <path d="M0,-77.971L0,-77.97C-6.472,-56.146 -28.678,-46.26 -46.169,-41.809C-72.426,-35.126 -103.351,-34.97 -140.714,-41.337C-153.924,-43.588 -164.905,-46.769 -173.234,-50.731C-186.822,-57.958 -191.984,-66.9 -193.295,-69.607L-193.363,-69.779C-198.576,-84.247 -194.336,-100.992 -189.273,-107.517C-182.624,-116.085 -168.117,-124.771 -154.778,-128.169C-137.595,-132.547 -113.056,-134.614 -97.262,-135.054C-93.82,-135.151 -90.361,-135.201 -86.981,-135.201L-86.977,-135.201C-45.822,-135.201 -30.511,-127.595 -29.486,-127.058L-29.14,-126.838L-28.173,-126.394C-28.05,-126.342 -15.792,-121.036 -7.786,-108.294C-2.295,-99.552 2.484,-86.335 0,-77.971M-20.594,-143.934C-25.772,-146.818 -46.097,-155.666 -97.772,-154.229C-115.308,-153.739 -140.676,-151.527 -159.283,-146.786C-176.467,-142.408 -194.812,-131.174 -203.895,-119.465C-210.574,-110.856 -218.591,-88.904 -211.942,-66.357C-213.553,-47.881 -215.564,-9.42 -215.214,16.065C-215.017,30.253 -213.719,45.589 -200.491,63.335C-190.555,76.66 -174.789,77.695 -170.194,77.695C-169.701,77.695 -169.354,77.685 -169.06,77.671C-167.8,77.604 -156.493,76.723 -147.578,66.436C-140.164,57.885 -136.815,45.759 -137.62,30.391C-138.366,16.162 -142.418,-5.619 -146.028,-22.811C-145.279,-22.674 -144.528,-22.542 -143.777,-22.414C-138.055,-21.44 -132.247,-20.588 -126.482,-19.877C-119.615,2.073 -109.593,30.358 -102.127,45.697C-91.765,66.993 -78.917,74.052 -69.966,76.223C-67.381,76.853 -64.729,77.171 -62.086,77.171C-55.831,77.171 -51.605,75.414 -50.781,75.043L-50.625,74.97C-48.731,74.083 -32.071,65.747 -29.983,46.603C-27.516,24.005 -34.222,9.114 -41.302,-4.199C-43.973,-9.224 -47.119,-14.916 -50.675,-21.16C-47.618,-21.764 -44.603,-22.444 -41.669,-23.191C-1.477,-33.422 12.898,-55.589 17.88,-72.382C20.711,-81.926 19.803,-99.781 7.923,-118.691C-2.274,-134.919 -16.305,-142.05 -20.594,-143.934" style="fill:white;fill-rule:nonzero;"/>
                    </g>
                    <g transform="matrix(1,0,0,1,313.2254,860.931)">
                        <path d="M0,-31.941L-0.12,-31.941C-10.421,-31.807 -20.753,-31.113 -30.87,-30.431C-41.575,-29.71 -52.646,-28.964 -63.27,-28.964C-66.203,-28.964 -69.175,-28.941 -72.186,-28.919L-72.502,-28.917C-89.696,-28.781 -109.172,-28.614 -119.359,-33.371C-121.699,-34.772 -123.723,-36.622 -125.377,-38.874C-130.877,-52.408 -124.597,-83.312 -114.113,-94.143C-110.679,-97.691 -96.938,-101.336 -73.246,-104.981L-71.389,-105.27C-69.762,-105.458 -31.18,-109.846 -0.383,-108.452C-0.274,-108.449 -0.167,-108.446 -0.059,-108.446C4.994,-108.446 9.223,-112.544 9.441,-117.729C9.549,-120.296 8.684,-122.759 7.006,-124.665C5.299,-126.599 2.96,-127.729 0.42,-127.846C-32.626,-129.36 -73.309,-124.584 -73.716,-124.535L-73.906,-124.508C-74.026,-124.493 -74.262,-124.473 -74.716,-124.431C-91.363,-122.847 -113.79,-118.902 -126.089,-109.098C-134.025,-102.772 -140.307,-90.975 -143.785,-75.869L-144.064,-75.836L-144.189,-74.039C-146.141,-64.786 -146.82,-55.036 -146.108,-46.529L-146.463,-41.441C-147.426,-27.637 -146.435,-7.415 -145.559,10.461C-145.104,19.771 -144.672,28.566 -144.574,35.342C-144.365,49.705 -142.975,65.23 -128.809,83.161C-118.355,96.391 -101.876,97.419 -97.075,97.419C-96.512,97.419 -96.145,97.405 -95.917,97.395L-95.593,97.374C-93.354,97.198 -81.743,95.8 -72.825,85.5C-65.36,76.878 -62.002,64.84 -62.842,49.721C-63.517,37.546 -69.021,8.753 -72.703,-9.504L-72.295,-9.506C-69.267,-9.53 -66.248,-9.554 -63.27,-9.554C-57.087,-9.554 -41.888,-10.394 -27.189,-11.207C-15.413,-11.858 -4.292,-12.473 0.12,-12.53C5.328,-12.598 9.513,-17.005 9.45,-22.355C9.386,-27.64 5.148,-31.941 0,-31.941" style="fill:white;fill-rule:nonzero;"/>
                    </g>
                    <g transform="matrix(1,0,0,1,510.8396,805.4582)">
                        <path d="M0,77.755C-7.566,104.832 -22.761,121.058 -45.162,125.981C-71.563,131.787 -99.346,126.863 -110.643,121.515C-123.917,115.235 -137.156,102.046 -142.121,90.156C-148.485,74.92 -151.494,53.033 -152.137,38.919C-154.101,-3.965 -141.824,-19.329 -140.987,-20.32L-140.593,-20.701L-139.812,-21.754C-139.73,-21.868 -131.52,-33.272 -111.276,-41.03C-88.559,-49.734 -68.395,-50.641 -58.035,-48.771C-38.488,-45.232 -12.642,-34.912 -0.513,-5.847C9.109,17.206 9.276,44.553 0,77.755M-54.905,-68.893C-67.503,-71.175 -91.48,-70.272 -117.612,-60.257C-140.889,-51.338 -151.655,-38.506 -154.542,-34.558C-159.14,-29.479 -173.285,-9.627 -171.017,39.928C-170.256,56.59 -166.792,80.742 -159.351,98.555C-152.548,114.842 -135.645,131.968 -118.245,140.203C-109.068,144.546 -90.555,148.93 -69.885,148.93C-59.895,148.93 -50.305,147.936 -41.381,145.975C-11.644,139.44 8.367,118.475 18.094,83.66C28.748,45.527 28.299,13.503 16.72,-14.241C1.164,-51.512 -30.815,-64.533 -54.905,-68.893" style="fill:white;fill-rule:nonzero;"/>
                    </g>
                    <g transform="matrix(1,0,0,1,1120.2867,685.8613)">
                        <path d="M0,-176.227C17.573,-178.601 33.775,-174.366 49.531,-163.288C69.585,-149.183 77.75,-127.99 78.081,-127.112L78.468,-126.197C78.65,-125.809 82.745,-117.016 86.86,-99.449L-10.637,-99.449C-12.408,-120.725 -15.519,-155.099 -16.977,-170.365C-12.228,-172.763 -5.899,-175.43 0,-176.227M-48.464,21.652C-47.944,21.706 -47.078,21.77 -45.914,21.77C-41.545,21.77 -33.023,20.84 -25.049,14.617C-16.42,7.882 -11.181,-2.77 -9.476,-17.045C-7.636,-32.48 -8.033,-60.035 -9.219,-80.547L90.578,-80.547C94.583,-56.048 96.268,-28.589 95.587,1.115C95.527,3.746 96.59,6.311 98.504,8.152C100.269,9.849 102.59,10.783 105.037,10.783C110.15,10.783 114.3,6.78 114.48,1.705L114.484,1.549C115.344,-35.88 112.673,-69.462 106.547,-98.263C101.964,-119.813 96.811,-131.579 95.691,-133.99C93.899,-138.725 84.137,-162.055 60.404,-178.747C40.563,-192.702 19.971,-197.997 -2.528,-194.958C-13.769,-193.44 -24.972,-187.839 -32.436,-183.37C-34.442,-182.44 -36.569,-181.066 -38.664,-179.361L-38.811,-179.258C-39.32,-178.904 -39.795,-178.494 -40.229,-178.038C-42.645,-175.903 -44.957,-173.447 -47.101,-170.736C-58.811,-155.939 -64.72,-135.337 -67.614,-120.66C-68.874,-114.268 -71.181,-104.745 -73.623,-94.662C-77.685,-77.893 -82.289,-58.886 -84.701,-43.991C-86.857,-30.691 -88.088,-16.12 -77.661,2.826C-68.834,18.866 -49.589,21.512 -48.733,21.622L-48.464,21.652Z" style="fill:white;fill-rule:nonzero;"/>
                    </g>
                    <g transform="matrix(1,0,0,1,506.1674,695.9825)">
                        <path d="M0,-211.253L-0.247,-211.279C-2.377,-211.492 -9.957,-211.864 -18.193,-207.789C-26.385,-203.738 -36.693,-194.494 -39.283,-173.463C-41.228,-157.645 -40.685,-128.788 -39.357,-108.671C-38.493,-95.576 -33.526,-42.097 -31.652,-23.213C-36.43,-21.215 -42.056,-19.808 -48.775,-18.928C-66.473,-16.605 -82.769,-20.733 -98.612,-31.533C-118.816,-45.307 -127.094,-66.381 -127.225,-66.715L-127.571,-67.496C-127.618,-67.593 -132.34,-77.346 -136.731,-96.719C-140.941,-115.309 -145.744,-146.763 -144.695,-191.04C-144.572,-196.247 -148.7,-200.585 -153.861,-200.709C-156.396,-200.797 -158.786,-199.882 -160.637,-198.128C-162.482,-196.38 -163.531,-194.021 -163.591,-191.485C-164.445,-155.446 -161.845,-123.096 -155.865,-95.335C-151.304,-74.162 -146.231,-62.674 -144.701,-59.5C-142.863,-54.811 -133.024,-32.117 -109.259,-15.917C-92.949,-4.796 -76.287,0.611 -58.313,0.611C-54.393,0.611 -50.358,0.343 -46.32,-0.184C-34.4,-1.745 -24.072,-5.656 -15.618,-11.81C-11.107,-14.063 -6.049,-18.387 -1.698,-23.716C4.809,-31.686 13.674,-46.631 18.951,-72.57C20.221,-78.812 22.625,-88.43 24.97,-97.816C29.046,-114.125 33.665,-132.609 36.089,-147.115C38.266,-160.138 39.508,-174.403 28.978,-192.95C20.105,-208.578 0.871,-211.144 0,-211.253" style="fill:white;fill-rule:nonzero;"/>
                    </g>
                    <g transform="matrix(1,0,0,1,883.6357,853.6001)">
                        <path d="M0,-22.669C-1.773,-43.947 -4.882,-78.319 -6.34,-93.584C-1.591,-95.982 4.738,-98.649 10.637,-99.446C28.214,-101.824 44.412,-97.583 60.167,-86.506C80.222,-72.4 88.387,-51.209 88.718,-50.33L88.945,-49.771C89.002,-49.638 89.061,-49.505 89.102,-49.421C89.285,-49.032 93.376,-40.216 97.494,-22.669L0,-22.669ZM106.321,-57.225C105.093,-60.455 95.164,-85.001 71.041,-101.965C51.199,-115.922 30.607,-121.22 8.109,-118.179C-3.135,-116.66 -14.336,-111.058 -21.798,-106.589C-23.801,-105.661 -25.932,-104.287 -28.174,-102.478C-28.678,-102.127 -29.154,-101.717 -29.591,-101.26C-32.009,-99.123 -34.32,-96.666 -36.464,-93.957C-48.174,-79.158 -54.083,-58.555 -56.977,-43.879C-58.24,-37.474 -60.545,-27.958 -62.986,-17.883C-67.048,-1.121 -71.651,17.879 -74.066,32.791C-76.22,46.092 -77.451,60.663 -67.024,79.607C-58.218,95.607 -38.958,98.29 -38.097,98.403L-37.828,98.433C-37.306,98.487 -36.44,98.551 -35.277,98.551C-30.91,98.551 -22.389,97.621 -14.414,91.398C-5.783,84.662 -0.543,74.009 1.16,59.736C3.002,44.291 2.601,16.688 1.418,-3.766L101.215,-3.766C105.22,20.732 106.905,48.19 106.224,77.896C106.164,80.527 107.227,83.092 109.141,84.933C110.906,86.63 113.227,87.564 115.674,87.564C120.786,87.564 124.934,83.561 125.121,78.33C125.979,40.901 123.308,7.319 117.184,-21.483C112.59,-43.084 107.424,-54.854 106.321,-57.225" style="fill:white;fill-rule:nonzero;"/>
                    </g>
                    <g transform="matrix(1,0,0,1,768.4425,596.0672)">
                        <path d="M0,-4.455C-0.114,15.182 -0.242,37.438 0.869,54.393C1.797,68.556 3.871,83.782 17.819,100.492C28.609,113.418 40.94,111.774 41.671,111.693L46.627,111.557C46.741,111.544 47.536,111.447 48.782,111.129C58.143,107.437 61.164,102.633 65.831,93.573C67.34,90.643 68.3,87.784 68.919,84.783C74.529,67.257 73.851,45.55 73.355,30.866C73.099,23.338 73.161,12.195 73.23,0.372L193.325,0.372C193.649,13.61 194.133,27.22 194.672,42.326C195.279,59.35 195.967,78.647 196.576,101.532C196.723,107.092 201.276,111.498 206.804,111.498C206.897,111.498 206.99,111.497 207.083,111.494C212.735,111.344 217.195,106.64 217.044,100.987C216.434,78.01 215.744,58.665 215.136,41.596C213.243,-11.477 212.101,-43.513 215.794,-104.442C216.136,-110.087 211.838,-114.939 206.194,-115.282C200.542,-115.609 195.697,-111.325 195.355,-105.682C193.193,-70.024 192.684,-43.544 192.992,-17.592L73.303,-17.592C73.315,-32.127 73.151,-46.821 72.363,-58.848C71.435,-73.011 75.211,-88.236 61.263,-104.947C50.473,-117.873 33.191,-116.095 32.46,-116.013L32.455,-116.012C32.341,-115.999 31.546,-115.902 30.301,-115.584C26.781,-114.687 19.666,-112.037 14.133,-104.585C12.287,-102.101 10.793,-99.317 9.636,-96.253C9.166,-95.303 8.702,-94.319 8.248,-93.271C0.328,-74.98 -0.675,-51.662 -0.123,-35.321C0.136,-27.714 0.07,-16.416 0,-4.455" style="fill:white;fill-rule:nonzero;"/>
                    </g>
                </g>
            </g>
        </g>
    </g>
</svg>
